<svg width="202" height="22" viewBox="0 0 202 22" fill="none" xmlns="http://www.w3.org/2000/svg">
<path d="M0 17.6932V0.238636H11.5824V3.28125H3.69034V6.69034H6.52841C7.90909 6.69034 9.09943 6.91477 10.0994 7.36364C11.1051 7.80682 11.8807 8.43466 12.4261 9.24716C12.9716 10.0597 13.2443 11.017 13.2443 12.1193C13.2443 13.2159 12.9716 14.1847 12.4261 15.0256C11.8807 15.8608 11.1051 16.5142 10.0994 16.9858C9.09943 17.4574 7.90909 17.6932 6.52841 17.6932H0ZM3.69034 14.7273H6.52841C7.1875 14.7273 7.74432 14.608 8.19886 14.3693C8.65341 14.125 8.99716 13.804 9.23011 13.4062C9.46875 13.0028 9.58807 12.5625 9.58807 12.0852C9.58807 11.392 9.32386 10.8068 8.79545 10.3295C8.27273 9.84659 7.51705 9.60511 6.52841 9.60511H3.69034V14.7273Z" fill="white"/>
<path d="M15.6328 17.6932V0.238636H27.3942V3.28125H19.3232V7.44034H26.7891V10.483H19.3232V14.6506H27.4283V17.6932H15.6328Z" fill="white"/>
<path d="M36.6776 17.9318C35.4048 17.9318 34.2713 17.7131 33.277 17.2756C32.2884 16.8324 31.5071 16.2244 30.9332 15.4517C30.3651 14.6733 30.0724 13.7756 30.0554 12.7585H33.7713C33.794 13.1847 33.9332 13.5597 34.1889 13.8835C34.4503 14.2017 34.7969 14.4489 35.2287 14.625C35.6605 14.8011 36.1463 14.8892 36.6861 14.8892C37.2486 14.8892 37.7457 14.7898 38.1776 14.5909C38.6094 14.392 38.9474 14.1165 39.1918 13.7642C39.4361 13.4119 39.5582 13.0057 39.5582 12.5455C39.5582 12.0795 39.4276 11.6676 39.1662 11.3097C38.9105 10.946 38.5412 10.6619 38.0582 10.4574C37.581 10.2528 37.0128 10.1506 36.3537 10.1506H34.7259V7.44034H36.3537C36.9105 7.44034 37.402 7.34375 37.8281 7.15057C38.2599 6.95739 38.5952 6.69034 38.8338 6.34943C39.0724 6.00284 39.1918 5.59943 39.1918 5.13921C39.1918 4.70171 39.0866 4.31818 38.8764 3.98864C38.6719 3.65341 38.3821 3.39205 38.0071 3.20455C37.6378 3.01705 37.206 2.9233 36.7116 2.9233C36.2116 2.9233 35.7543 3.0142 35.3395 3.19602C34.9247 3.37216 34.5923 3.625 34.3423 3.95455C34.0923 4.28409 33.9588 4.67045 33.9418 5.11364H30.4048C30.4219 4.10795 30.7088 3.22159 31.2656 2.45455C31.8224 1.6875 32.5724 1.08807 33.5156 0.65625C34.4645 0.21875 35.5355 0 36.7287 0C37.9332 0 38.9872 0.21875 39.8906 0.65625C40.794 1.09375 41.4957 1.68466 41.9957 2.42898C42.5014 3.16761 42.7514 3.99716 42.7457 4.91761C42.7514 5.89489 42.4474 6.71023 41.8338 7.36364C41.2259 8.01705 40.4332 8.43182 39.456 8.60795V8.74432C40.7401 8.90909 41.7173 9.35511 42.3878 10.0824C43.0639 10.804 43.3991 11.7074 43.3935 12.7926C43.3991 13.7869 43.1122 14.6705 42.5327 15.4432C41.9588 16.2159 41.1662 16.8239 40.1548 17.267C39.1435 17.7102 37.9844 17.9318 36.6776 17.9318Z" fill="white"/>
<path d="M45.2024 21.9034V14.7528H46.3871C46.7905 14.4631 47.1598 14.054 47.495 13.5256C47.8303 12.9915 48.1172 12.2557 48.3558 11.3182C48.5945 10.375 48.7649 9.14205 48.8672 7.61932L49.3615 0.238636H60.9098V14.7528H62.8189V21.8864H59.2734V17.6932H48.7479V21.9034H45.2024ZM50.6484 14.7528H57.3643V3.28125H52.6854L52.4126 7.61932C52.3388 8.77273 52.2166 9.79546 52.0462 10.6875C51.8814 11.5795 51.6797 12.3608 51.4411 13.0312C51.2081 13.696 50.9439 14.2699 50.6484 14.7528Z" fill="white"/>
<path d="M65.0625 17.6932V0.238636L85.1988 0.619318C86.4829 0.619318 87.5539 0.809659 88.4119 1.19034C89.2698 1.57102 89.9147 2.09943 90.3465 2.77557C90.7784 3.44602 90.9943 4.21875 90.9943 5.09375C90.9943 5.77557 90.8579 6.375 90.5852 6.89205C90.3125 7.40341 89.9375 7.82386 89.4602 8.15341C88.9886 8.47727 88.4488 8.70739 87.8409 8.84375V9.0142C88.5056 9.04261 89.1278 9.23011 89.7073 9.5767C90.2926 9.9233 90.767 10.4091 91.1306 11.0341C91.4943 11.6534 91.6761 12.392 91.6761 13.25C91.6761 14.1761 91.446 15.0028 90.9857 15.7301C90.5312 16.4517 89.8579 17.0227 88.9659 17.4432C88.0738 17.8636 86.9744 18.0739 85.6676 18.0739L65.0625 17.6932ZM68.7528 14.6761L84.909 15.0568C85.9375 15.0568 86.6875 14.8608 87.159 14.4688C87.6306 14.071 87.8664 13.5426 87.8664 12.8835C87.8664 12.4006 87.75 11.9744 87.517 11.6051C87.284 11.2358 86.9517 10.946 86.5198 10.7358C86.0937 10.5256 85.5852 10.4205 84.9943 10.4205L68.7528 10.0398V14.6761ZM68.7528 7.54261H71.4886C71.9943 7.54261 85.5909 7.83523 85.9829 7.65909C86.3806 7.47727 86.6931 7.22159 86.9204 6.89205C87.1534 6.5625 87.2698 6.16761 87.2698 5.70739C87.2698 5.07671 87.0454 4.56818 86.5965 4.18182C86.1534 3.79545 85.5227 3.60227 84.7045 3.60227L68.7528 3.22159V7.54261Z" fill="white"/>
<path d="M94.0774 0.619318H97.7592V11.5966H97.9041L105.447 0.619318H108.677V18.0739H104.986V7.08807H104.859L97.2734 18.0739H94.0774V0.619318Z" fill="#4E4E4E"/>
<path d="M125.021 0.619318V18.0739H121.442V0.619318H125.021ZM110.899 18.0739L116.371 8.86932L111.129 0.619318H115.672L119.592 7.80398H126.964L130.783 0.619318H135.308L130.195 8.84375L135.564 18.0739H131.158L127.467 11.2131H119.055L115.271 18.0739H110.899Z" fill="#4E4E4E"/>
<path d="M137.765 18.0739V0.619318H149.526V3.66193H141.455V7.82102H148.921V10.8636H141.455V15.0313H149.56V18.0739H137.765Z" fill="#4E4E4E"/>
<path d="M152.46 18.0739V0.619318H156.151V7.82102H163.642V0.619318H167.324V18.0739H163.642V10.8636H156.151V18.0739H152.46Z" fill="#4E4E4E"/>
<path d="M170.366 0.619318H174.048V11.5966H174.193L181.736 0.619318H184.966V18.0739H181.276V7.08807H181.148L173.562 18.0739H170.366V0.619318Z" fill="#4E4E4E"/>
<path d="M201.413 18.0739H197.731V3.63636H195.242C194.532 3.63636 193.941 3.74148 193.469 3.9517C193.003 4.15625 192.654 4.45739 192.421 4.85511C192.188 5.25284 192.072 5.74148 192.072 6.32102C192.072 6.89489 192.188 7.375 192.421 7.76136C192.654 8.14773 193.003 8.4375 193.469 8.63068C193.935 8.82386 194.521 8.92045 195.225 8.92045H199.231V11.8864H194.628C193.293 11.8864 192.151 11.6648 191.202 11.2216C190.253 10.7784 189.529 10.142 189.029 9.3125C188.529 8.47727 188.279 7.48011 188.279 6.32102C188.279 5.16761 188.523 4.16477 189.012 3.3125C189.506 2.45455 190.219 1.79261 191.151 1.3267C192.089 0.855114 193.217 0.619318 194.535 0.619318H201.413V18.0739ZM191.995 10.1307H195.975L191.731 18.0739H187.657L191.995 10.1307Z" fill="#4E4E4E"/>
</svg>
